<?xml version="1.0" standalone="no"?>
<!DOCTYPE svg PUBLIC "-//W3C//DTD SVG 20010904//EN"
 "http://www.w3.org/TR/2001/REC-SVG-20010904/DTD/svg10.dtd">
<svg version="1.0" xmlns="http://www.w3.org/2000/svg"
 width="2000.000000pt" height="2000.000000pt" viewBox="0 0 2000.000000 2000.000000"
 preserveAspectRatio="xMidYMid meet">
<metadata>
Created by potrace 1.16, written by Peter Selinger 2001-2019
</metadata>
<g transform="translate(0.000000,2000.000000) scale(0.100000,-0.100000)"
fill="#000000" stroke="none">
<path d="M8400 11870 c0 -6 -28 -10 -65 -10 -37 0 -65 -4 -65 -10 0 -5 -20
-10 -45 -10 -25 0 -45 -4 -45 -9 0 -5 -25 -12 -55 -16 -30 -3 -55 -11 -55 -16
0 -5 -9 -9 -20 -9 -11 0 -20 -4 -20 -10 0 -5 -9 -10 -20 -10 -11 0 -20 -4 -20
-10 0 -5 -9 -10 -20 -10 -11 0 -20 -4 -20 -10 0 -5 -6 -10 -13 -10 -7 0 -19
-9 -27 -20 -8 -11 -20 -20 -28 -20 -13 0 -32 -13 -55 -38 -58 -64 -119 -122
-127 -122 -6 0 -10 -7 -10 -16 0 -8 -7 -22 -15 -30 -8 -9 -15 -24 -15 -35 0
-10 -4 -19 -10 -19 -5 0 -10 -9 -10 -20 0 -11 -4 -20 -10 -20 -5 0 -10 -7 -10
-15 0 -8 -4 -15 -10 -15 -5 0 -10 -9 -10 -20 0 -11 -4 -20 -10 -20 -5 0 -10
-13 -10 -30 0 -16 -4 -30 -10 -30 -5 0 -10 -11 -10 -25 0 -14 -4 -25 -10 -25
-5 0 -10 -22 -10 -49 0 -31 -5 -51 -12 -53 -19 -7 -19 -3419 0 -3425 7 -3 12
-23 12 -54 0 -27 5 -49 10 -49 6 0 10 -11 10 -25 0 -14 5 -25 10 -25 6 0 10
-13 10 -30 0 -16 5 -30 10 -30 6 0 10 -9 10 -20 0 -11 5 -20 10 -20 6 0 10 -7
10 -15 0 -8 5 -15 10 -15 6 0 10 -9 10 -20 0 -11 5 -20 10 -20 6 0 10 -9 10
-19 0 -11 7 -26 15 -35 8 -8 15 -17 15 -20 0 -13 180 -186 192 -186 8 0 20 -9
28 -20 8 -11 20 -20 27 -20 7 0 13 -4 13 -10 0 -5 9 -10 20 -10 11 0 20 -4 20
-10 0 -5 9 -10 20 -10 11 0 20 -4 20 -9 0 -6 20 -13 45 -17 25 -3 45 -10 45
-15 0 -5 14 -9 30 -9 17 0 30 -4 30 -10 0 -5 20 -10 45 -10 25 0 45 -4 45 -10
0 -6 32 -10 75 -10 43 0 75 -4 75 -10 0 -7 530 -10 1570 -10 1040 0 1570 3
1570 10 0 6 32 10 75 10 43 0 75 4 75 10 0 6 20 10 45 10 25 0 45 5 45 10 0 6
14 10 30 10 17 0 30 4 30 9 0 5 20 12 45 15 25 4 45 11 45 17 0 5 9 9 20 9 11
0 20 5 20 10 0 6 9 10 20 10 11 0 20 5 20 10 0 6 6 10 13 10 7 0 19 9 27 20 8
11 20 20 28 20 11 0 37 20 74 58 73 74 118 123 118 130 0 4 9 14 19 22 11 7
23 31 26 52 4 21 11 38 16 38 5 0 9 7 9 15 0 8 5 15 10 15 6 0 10 9 10 20 0
11 5 20 10 20 6 0 10 14 10 30 0 17 5 30 10 30 6 0 10 11 10 25 0 14 5 25 10
25 6 0 10 23 10 50 0 30 4 50 11 50 8 0 10 28 7 93 -2 50 -2 84 0 75 2 -10 8
-18 14 -18 6 0 8 10 4 23 -3 12 -6 28 -6 35 0 20 -17 14 -25 -10 -4 -13 -8
-25 -10 -28 -1 -3 -5 -13 -10 -23 -4 -10 -5 -21 -1 -24 3 -4 6 -1 6 5 0 7 5
12 10 12 14 0 12 -12 -6 -35 -12 -16 -17 -17 -23 -7 -6 11 -14 6 -31 -18 -12
-17 -19 -34 -16 -37 3 -4 6 -1 6 5 0 7 5 12 12 12 7 0 -3 -15 -22 -33 -19 -19
-38 -32 -43 -30 -11 6 -68 -37 -62 -47 3 -5 -3 -8 -12 -7 -10 0 -43 -11 -73
-25 -30 -13 -71 -30 -91 -36 -50 -17 -3297 -17 -3348 -1 -20 6 -70 28 -111 47
-143 68 -264 222 -299 382 -9 42 -11 435 -9 1675 3 1765 -1 1632 54 1752 23
50 100 147 149 187 25 21 42 42 39 48 -4 7 -2 8 5 4 12 -8 71 14 71 26 0 5 7
8 15 8 8 0 23 4 33 9 60 30 105 31 1723 33 l1634 3 -1650 5 -1650 5 1206 3
c1113 2 2085 12 2032 20 -13 2 -23 8 -23 13 0 5 -9 9 -20 9 -11 0 -20 4 -20 9
0 5 -25 13 -55 16 -30 4 -55 11 -55 16 0 5 -20 9 -45 9 -25 0 -45 5 -45 10 0
6 -28 10 -65 10 -37 0 -65 4 -65 10 0 7 -537 10 -1590 10 -1053 0 -1590 -3
-1590 -10z"/>
</g>
</svg>
